Coordinates
version=1
nRows=9
nColumns=63
inDegrees=yes

Units are S.I. units (second, meters, Newtons, ...)
If the header above contains a line with 'inDegrees', this indicates whether rotational values are in degrees (yes) or radians (no).

endheader
time	pelvis_tilt	pelvis_list	pelvis_rotation	pelvis_tx	pelvis_ty	pelvis_tz	hip_flexion_r	hip_adduction_r	hip_rotation_r	knee_angle_r	knee_angle_r_beta	ankle_angle_r	subtalar_angle_r	mtp_angle_r	hip_flexion_l	hip_adduction_l	hip_rotation_l	knee_angle_l	knee_angle_l_beta	ankle_angle_l	subtalar_angle_l	mtp_angle_l	L5_S1_Flex_Ext	L5_S1_Lat_Bending	L5_S1_axial_rotation	L4_L5_Flex_Ext	L4_L5_Lat_Bending	L4_L5_axial_rotation	L3_L4_Flex_Ext	L3_L4_Lat_Bending	L3_L4_axial_rotation	L2_L3_Flex_Ext	L2_L3_Lat_Bending	L2_L3_axial_rotation	L1_L2_Flex_Ext	L1_L2_Lat_Bending	L1_L2_axial_rotation	L1_T12_Flex_Ext	L1_T12_Lat_Bending	L1_T12_axial_rotation	Abs_r3	Abs_r2	Abs_r1	Abs_t1	Abs_t2	neck_flexion	neck_bending	neck_rotation	arm_flex_r	arm_add_r	arm_rot_r	elbow_flex_r	pro_sup_r	wrist_flex_r	wrist_dev_r	arm_flex_l	arm_add_l	arm_rot_l	elbow_flex_l	pro_sup_l	wrist_flex_l	wrist_dev_l
      3.68750000	      0.76400881	    -34.33014349	    103.58259601	      0.33038589	      0.68572800	      0.94253176	     44.79240717	      0.09715718	     -9.31800414	     19.95112755	      0.34821287	     26.39870484	     -4.54329517	      0.00000000	     45.09016755	     -1.85507656	     -6.77445930	     13.77225435	      0.24037118	     31.01965003	     16.73521733	      0.00000000	     -0.09185620	     -2.37197447	     -0.13628936	     -0.17058616	     -3.15472604	     -0.14480744	     -0.15091056	     -5.76721872	     -0.14480744	     -0.10498246	     -5.76721872	     -0.11925319	     -0.08529767	     -4.83693033	     -0.11073510	     -0.05248663	     -3.67418845	     -0.10221702	     -0.65611968	    -26.83224956	     -0.75800051	      0.00000000	      0.00000000	     14.09515945	      5.62859855	     11.76299291	     50.58986839	    -37.27521900	    -39.90428893	     89.40300285	     82.01786554	    -15.52707767	      5.97908450	     24.09761063	    -34.66103558	    -31.29443843	     30.17753804	     85.82483755	    -16.37617658	     -6.59493252
      3.70833333	      1.85845883	    -34.47891450	    105.14790611	      0.33015102	      0.68297761	      0.94952987	     46.87180848	      0.35687453	     -7.93516564	     22.21262405	      0.38768343	     26.77159246	     -8.04636192	      0.00000000	     46.71119886	     -1.94909388	     -6.10019448	     14.98669627	      0.26156719	     30.75416787	     16.82290559	      0.00000000	     -0.15694892	     -2.24518766	     -0.18315967	     -0.29146984	     -2.98609958	     -0.19460715	     -0.25785138	     -5.45894927	     -0.19460715	     -0.17937692	     -5.45894927	     -0.16026471	     -0.14574277	     -4.57838667	     -0.14881723	     -0.08968061	     -3.47779568	     -0.13736975	     -1.12107043	    -25.39801182	     -1.01867912	      0.00000000	      0.00000000	     13.21280739	      4.98737739	     13.40587844	     59.49199967	    -31.72239875	    -29.49472392	     82.16890578	     80.17857217	    -13.68818918	      5.38639627	     28.76954919	    -30.85925241	    -27.14624491	     32.05690268	     87.55090228	    -17.60689711	     -4.91551407
      3.72916667	      2.50003738	    -34.79874432	    106.35073057	      0.32996843	      0.67942515	      0.95660028	     49.24255661	      0.16234457	     -7.08027507	     24.99526409	      0.43624966	     27.28199358	    -10.26007928	      0.00000000	     48.39429640	     -1.76573542	     -5.79111672	     16.28512174	      0.28422899	     30.45544765	     16.78807418	      0.00000000	     -0.23415642	     -2.17592160	     -0.05022179	     -0.43485189	     -2.89397572	     -0.05336066	     -0.38469558	     -5.29053577	     -0.05336066	     -0.26761737	     -5.29053577	     -0.04394407	     -0.21743765	     -4.43713932	     -0.04080521	     -0.13379698	     -3.37050255	     -0.03766634	     -1.67255588	    -24.61446029	     -0.27931855	      0.00000000	      0.00000000	     12.60555750	      4.16354092	     13.02508724	     65.18631370	    -25.74357793	    -20.95309396	     74.15698149	     81.31523370	    -12.28214674	      5.25528407	     33.03858049	    -26.63795161	    -20.84131654	     35.39720529	     88.34656479	    -17.94150876	     -2.78087138
      3.75000000	      4.31024568	    -35.17734280	    108.78982074	      0.32903489	      0.67462282	      0.96390576	     51.64136842	      0.42839346	     -6.48935260	     27.19921346	      0.47471583	     26.43686675	    -14.75969441	      0.00000000	     50.67269300	     -1.77954650	     -4.45532480	     17.82389550	      0.31108566	     30.42837889	     16.77285144	      0.00000000	     -0.26589553	     -1.99737205	     -0.02624692	     -0.49379460	     -2.65650483	     -0.02788736	     -0.43683977	     -4.85641041	     -0.02788736	     -0.30389201	     -4.85641041	     -0.02296606	     -0.24691059	     -4.07304109	     -0.02132563	     -0.15193271	     -3.09392931	     -0.01968519	     -1.89926521	    -22.59467215	     -0.14597751	      0.00000000	      0.00000000	     11.94294090	      3.16327549	     12.50838122	     69.31613574	    -19.80991759	    -11.97044864	     64.23752433	     84.41927141	    -11.32558258	      4.23404515	     35.88325276	    -22.47064544	    -13.51363635	     40.17567417	     88.47538692	    -19.50605278	      0.25157798
      3.77083333	      5.72346858	    -35.87415432	    110.95037734	      0.32784174	      0.66883791	      0.97070530	     54.35005742	      0.02053038	     -6.72872063	     29.69330469	      0.51824593	     26.11326876	    -17.14686468	      0.00000000	     53.09736439	     -1.42582913	     -3.57665575	     19.39557629	      0.33851667	     30.55948183	     16.71582345	      0.00000000	     -0.26610947	     -1.87088427	      0.07182504	     -0.49419191	     -2.48827608	      0.07631411	     -0.43719126	     -4.54886802	      0.07631411	     -0.30413652	     -4.54886802	      0.06284691	     -0.24710926	     -3.81510721	      0.05835785	     -0.15205495	     -2.89799974	      0.05386878	     -1.90079337	    -21.16381707	      0.39946934	      0.00000000	      0.00000000	     11.91954300	      1.55784421	     10.82044030	     72.53630772	    -15.04437587	     -1.23715202	     53.07839758	     85.98530294	    -11.24493827	      4.49958275	     38.68308850	    -18.60867773	     -5.93620476	     44.78959149	     88.65428572	    -19.68563059	      2.20457213
      3.79166667	      7.44173714	    -36.84094860	    113.36195944	      0.32588182	      0.66231856	      0.97698063	     57.20655857	     -0.67963244	     -7.75989976	     31.96315849	      0.55786236	     26.12921272	    -18.20543578	      0.00000000	     55.81951514	     -0.98739214	     -2.76090707	     20.92699056	      0.36524489	     31.01981482	     16.83198874	      0.00000000	     -0.22837801	     -1.72164918	      0.28526238	     -0.42412080	     -2.28979340	      0.30309128	     -0.37520223	     -4.18601780	      0.30309128	     -0.26101323	     -4.18601780	      0.24960458	     -0.21207182	     -3.51078700	      0.23177568	     -0.13049520	     -2.66683457	      0.21394678	     -1.63128129	    -19.47563980	      1.58654377	      0.00000000	      0.00000000	     12.42363277	     -0.70509830	      8.52815198	     76.10235585	    -11.29588740	     13.21437616	     40.42638889	     85.43097777	    -12.22498878	      4.12064237	     41.91934231	    -14.01570484	      1.19098067	     48.42401830	     88.73302498	    -19.67533037	      3.12138289
      3.81250000	      9.91452786	    -38.04318476	    116.38208028	      0.32256572	      0.65503455	      0.98315248	     60.33523148	     -1.46455160	     -9.18431494	     33.95010260	      0.59254107	     26.52343332	    -18.63302599	      0.00000000	     59.04728086	     -0.51287430	     -1.67304351	     22.47487342	      0.39226054	     31.88100914	     16.96673152	      0.00000000	     -0.14037834	     -1.51902872	      0.70591972	     -0.26069662	     -2.02030820	      0.75003970	     -0.23062757	     -3.69336644	      0.75003970	     -0.16043840	     -3.69336644	      0.61767975	     -0.13035533	     -3.09760337	      0.57355977	     -0.08021218	     -2.35297549	      0.52943979	     -1.00270845	    -17.18355674	      3.92611370	      0.00000000	      0.00000000	     13.58620160	     -3.30584593	      5.09488135	     79.18844228	     -8.63855480	     31.98403222	     29.14929401	     80.00742155	    -13.88157868	      3.20211335	     45.53239431	     -7.50693014	      6.89309511	     50.31613434	     88.75188920	    -19.23426750	      2.63263582
      3.83333333	     11.72537532	    -39.53438516	    118.64685572	      0.31993028	      0.64815332	      0.98818825	     63.50833593	     -2.33130888	     -9.57213509	     35.74214772	      0.62381816	     27.32765211	    -18.83587015	      0.00000000	     61.99732016	      0.12157681	     -1.54046621	     23.64931009	      0.41275833	     32.87980381	     17.07591308	      0.00000000	     -0.02480078	     -1.45031019	      1.33915947	     -0.04605753	     -1.92891255	      1.42285693	     -0.04074520	     -3.52628419	      1.42285693	     -0.02834481	     -3.52628419	      1.17176453	     -0.02303001	     -2.95747254	      1.08806707	     -0.01417117	     -2.24653048	      1.00436960	     -0.17714950	    -16.40619892	      7.44800321	      0.00000000	      0.00000000	     14.77560375	     -4.86479167	     -0.66547395	     78.24016219	     -6.11074209	     38.37605426	     23.06159830	     82.34198797	    -12.88843032	      3.49177253	     48.85382232	     -0.35479371	     11.38551984	     51.07649455	     88.76959074	    -18.72790544	      2.44857239
      3.85416667	     14.15324662	    -39.18870672	    121.46556744	      0.31640457	      0.64470585	      0.99368098	     64.77434590	     -2.69798840	    -10.99829044	     36.60278978	      0.63883920	     28.05343316	    -18.86162508	      0.00000000	     63.56443124	      0.32744194	     -0.33835721	     24.51823175	      0.42792387	     33.82130590	     17.56559428	      0.00000000	     -0.03454594	     -1.19131389	      1.59428571	     -0.06415527	     -1.58444747	      1.69392856	     -0.05675552	     -2.89656058	      1.69392856	     -0.03948255	     -2.89656058	      1.39499999	     -0.03207936	     -2.42932727	      1.29535714	     -0.01973955	     -1.84534521	      1.19571428	     -0.24675819	    -13.47638093	      8.86693881	      0.00000000	      0.00000000	     15.19818085	     -6.46266847	     -3.16482518	     83.16159207	     -0.15577167	    128.35018819	      6.08211886	      3.18772751	     -9.93425720	     -7.74177410	     50.24502077	      5.55646562	     12.01240066	     51.99728039	     88.73356741	    -19.23574531	      1.47593701
